<mxfile host="app.diagrams.net" modified="2023-02-27T11:42:32.359Z" agent="5.0 (Windows NT 10.0; Win64; x64) AppleWebKit/537.36 (KHTML, like Gecko) Chrome/110.0.0.0 Safari/537.36" etag="Ez8IjZvF3snBNYXXv3kK" version="20.8.23" type="github">
  <diagram name="Page-1" id="YshnVgcN5FhFrySCdBoU">
    <mxGraphModel dx="1432" dy="874" grid="1" gridSize="10" guides="1" tooltips="1" connect="1" arrows="1" fold="1" page="1" pageScale="1" pageWidth="850" pageHeight="1100" math="0" shadow="0">
      <root>
        <mxCell id="0" />
        <mxCell id="1" parent="0" />
        <mxCell id="ev5S6L33R8Vy1crg-KvJ-3" value="" style="shape=image;verticalLabelPosition=bottom;labelBackgroundColor=default;verticalAlign=top;aspect=fixed;imageAspect=0;image=data:image/png,iVBORw0KGgoAAAANSUhEUgAAAyAAAALmCAYAAAC6tvB1AAAAAXNSR0IArs4c6QAAAARnQU1BAACxjwv8YQUAAAAJcEhZcwAADsMAAA7DAcdvqGQAAFibSURBVHhe7d0JvF1VYS/+dc6d701u5nmEJCSEIUDCKBjQIIrWqYr11dp+Xtvna/H/t+/P65+K/zbQatWnvj777KsTVau2CLVqVRC0ghLmQWaSMCSSgczzne8957/WvieIlCG592bfE+73GxbnnLXPhZt19t5r/fbae58AAAAAAAAAAAAAAAAAAAAAAAAAAAAAAAAAAAAAAAAAAAAAAAAAAAAAAAAAAAAAAAAAAAAAAAAAAAAAAAAAAAAAAAAAAAAAAAAAAAAAAAAAAAAAAAAAAAAAAAAAAAAAAAAAAAAAAAAAAAAAAAAAAAAAAAAAAAAAAAAAAAAAAAAAAAAAAAAAAAAAAAAAAAAAAAAAAAAAAAAAAAAAAAAAAAAAAAAAAAAAAAAAAAAAAAAAAAAAAAAAAAAAAAAAAAAAAAAAAAAAAAAAAAAAAAAAAAAAAAAAAAAAAAAAAAAAAAAAAAAAAAAAAAAAAAAAAAAAAAAAAAAAAAAAAAAAAAAAAAAAAAAAAAAAAAAAAAAAAADkpVB5ZIisXLmyOGvWrJbKSwCAV63W1tauSy65pLvyEg6JADKEYviojQ8zL7jggtOKxaIQAkepvr6+0NbWlj2vqakJtbW1hfhYSLLKl9DZ2Rm6u/XDLya1Yypx3xjq6+srtRyqtF6l9StJ7VhXV/dcm8JwifvGUk9Pz9a777770WnTpnWMGzeu461vfWt7ZTG8JAFkCL33ve+duHnz5t+KG+SJcZwypVwuFyuLgKNIV1dXeOqpp0KpVMoGzE1NTcXm5ubaUaNGFRsbG1MYSW8rV0ombu9h48aNYdeuXZUaDkpteDB4xHYMsR1DbMfs9StkOioOHDgQ1q9fnz2PfUxaJ0NLS0tWGhoasnbUluQtrnOluC0fGDNmzC/nzp27fs6cOU9u2rTpwXnz5u1///vf338UB16EvdUQeve73z0mDj7eHjvX03t7e8+LVQ39S4CjSTra/PTTT4f29vZCfF6I4aKur6+vMS6qnzRpUn3saGunTp3aXVdXV+r/if4AsnXr1rB79+5KDQelIJfaNLZnNrOUSho0H3PMMWHmzJlh9OjRlXfyUlLbPfPMM8+1Y0dHR9aOPT09Yfr06VlbTpgwwYwIuers7Czv2LGjO+77dsXn2+PYZ9usWbN+GcdD98VwfHNcJ/eZEeHFCCBD7Atf+MKYN73pTUtip9BaKBTMgMBRKs2CpFOx9uzZU7d69erx991337E33XTTidu3b5//5je/eeZ//a//tfmEE074tQFfCiHpZ/iPUntu2LAhPProo+H6668Pt9xyS5g9e3b4wz/8wxAHKNmsCC8trVspyMUBXhZyH3vssXDbbbeF7373u1kgiQO+8Pu///shDv6y2SbISwrFzz77bG9cJzvjdt1xww037GpoaFj/nve854Hf/d3fvXnTpk03X3DBBb2Vt0NGADkC7r333rpt27bpAeBVoKmpqbB27dp06lXT6NGjX/fVr351xcMPP7zsvPPOO+5DH/pQy5IlSw6eksXLOBjOUhCJ+8cshMS2zE4n+sAHPhAuueSS7LQipxG9vNSOqaRBXzot6/777w+f+9znwpo1a8Jb3vKW8N/+23/LZkSEEPJS2bbLcZ0s79mzJ6xatarn85///J7NmzevW758+fcXLlz4+csuu8y5qfwae3qAQ3TjjTe2zJs3b/mXv/zlN1533XXnvuMd71hw6aWXtsyZMyeOm+1OD1U6kp8uqE5H8D/72c9mpxL92Z/9WXj961+fBRIOTRr4pRmRdO1RCiE//OEPszD3u7/7u2HcuHHCHLlL62RXV1c5BuLev/3bv91566233vX+97//W9OmTfvBH/zBH+yvvA2Cw3YAh+gb3/hGz3/+z/9582te85ru2MG23Hzzza0zZsxonT9/fm1DQ4PR3iFKA+N0F6d0ClZra2v40Y9+lF1gfeaZZ4axY8caOB+i1E5p9m3MmDFh4cKF4cEHHwz//u//HhYvXhxiKHY9CLlL62RtbW1hwoQJ6SsJ6u++++7iXXfdVXzHO97Rtnz58l/+4Ac/eO66OUY2eyeAw/D5z3++5+KLL3522bJlxdtuu23K008/PenEE09sikEk3ae38i4ORRogT506NZsBSSEkDaSXLl1q4HyY0nqXrqGZMmVKdmrb9u3bw9lnn51d3G+dZDjEbbgwduzYmpaWlqYf//jHtZs3b94bQ8kDP/nJT7oqb2GEc5IowGG66KKL2mKH+pP58+ffvXr16i0PP/xwd0dHx3O35OXQpRmQc889NwsiN998c9ixY0d2GgeHJ526FoNwOOuss9J1iNltpNPpWTBc0vVzS5cubVyyZMnURx999LjTTz99SdzGnWNJRgABGIAnn3zywLJly54sFosbHnroof3btm1zasEApIulZ8yYEdIdxdJdsmJbZteIcHjSTEf6TpA4yMtuzXvPPfeE/fudcs/wSevk2LFjC6eeempzZ2fnlF/84hez4vZtepOMAAIwAFdeeWX5nHPO2dXU1LRz3bp1nbt37zZqHqBJkyZl1y2kuzo98cQTbmU8QOm7VZYsWZLdTSzdFSu1Jwyn9OWtJ598cksMI9Mef/zxuTEk11cWMcIJIAADNH/+/K44eO7av39/n8HewKVrFdIX6aUL09P1C07BGph07czcuXOzLyTcuXNndqteGE7pNKy4bdeOGTNmXEdHx9yLLrrohPRVBZXFjGACCMAApSPNM2fOjOPl/u9lYGDSaVjp7lfjx4/PLkgXQAYmnfLS2NgYpk2bln3fimtAGG5pnWxubi5MnTq1PgaQ5rhtj/E9aSRWAoBBSKe9pAG0QfPgpDasr693+tUQSOtkWh+tk1SDSjAulEqldEs2t2UjI4AAAAC5EUAAAIDcCCAAAEBuBBAAACA3AggAAJAbAQQAAMiNAAIAAORGAAEAAHIjgAAAALkRQAAAgNwIIAAAQG4EEAAAIDcCCAAAkBsBBAAAyI0AAgAA5EYAAQAAciOAAAAAuRFAAIARqVwuh927d4d77rknPPzww2Hfvn1Zfaq7//77w0MPPRT279+f1e3YsePX6tLPAgMjgAAAI1IKEatXrw5XXHFF+PM///Pw+OOPZ/WPPvpoVveRj3wke56sWbMmXHnlleHyyy8Pjz32mAACgyCAAAAj1ujRo8OiRYvCrFmzQl1dXVbX2toajjvuuDBjxoxQX1+f1Y0dOzbMnz8/e19DQ0NWBwyMAAIAjEjFYjEcf/zx4ZOf/GT4+Mc/Hk488cSsPj2muk996lPhpJNOyurS+z72sY+FT3/609nyQqGQ1QOHTwABAEasmpqa0NzcHEaNGvXcbEcKJk1NTdnsyMFZkYN1aXaktrZWAIFBEEAAAIDcCCAAAEBuBBAAACA3AggAAJAbAQQAAMiNAAIAAORGAAEAAHIjgAAAALkRQAAAgNwIIAAAHGm+Op7nCCAAA3DLLbfUFAqF+mKxWBtf6lgBXkK5XC7U9GuYPHlyTaWaEUwAAThMn/3sZxvOOOOMJd3d3Ytra2snxar6np6eQiwhldjZ9r+Rl9Xb25u1Vyp9fX1Zu6XH59fxykql0nNtlto0tWMqB+tSgTw9fzuO62Q6QFNbKBQmxPqFixcvXvqVr3ylsf+djFRSKMBh+MIXvlD37LPPvuGhhx560yOPPHLm3XfffdyGDRumxM61YevWrYVYFxoaGsKkSSmX8HJWr14dbrjhhvDggw+G++67L9xzzz2hs7MzGzw/9thjYcuWLWHu3LmhpkZX9XL27dsXvve972VtmNpy1apVYfv27Vm7rV+/PmvnadOmhZaWlspPwJEV95Hh3/7t38IDDzwQfvGLX4Tbb7+95sCBAzUxgLTGfee0uH62XnzxxU//+Mc/lo5HKKcNAByilStXFi+77LLj/uzP/uw9P//5zy9sa2ubtXv37vFdXV1N48ePr0kDvPnz54dLL700xM618lO8lH//938Pn/70p8O6detCbMOwbdu2UFdXFyZPnhxie4Y3vvGN4fLLLw9NTU2Vn+DFpHaL62a47bbbsgCXXqcjzxMnTsxCx5IlS8Jf/MVfhOOPP77yE3BkPf744+HKK68MDz/8cOju7g5bt24tR52TJk3aE7fnZ5ctW3Z73I9+o6Oj4/74XAgZgZyCBXCIrrrqqlLsWLfHAXLv9u3bm+PAefyePXuaYydas2nTprB27dpQKBRCc3Nz5Sd4OWPGjMkCR2q3dKS+vb097N27NzzxxBPZIHrChAlZe/LyUhumGbdnnnkma7vUhqkt0+snn3wyWx/TeyAv6aBB2r6feuqprBw4cKDQ1tbWGLfz8Rs2bGiJy8pxG9/59NNPlyo/wggjgAAchuuvv37vGWecsb6lpWV7fNnVX/srixcvzk4b4pXNmjUrnHzyyZVXv27cuHEhtrPTrw5BChhnnXXWiwbf1H5Lly7NZpQgLwe339radI+O56SL47rr6+t3xWXPxDCy45JLLnGh1wglgAAcnlIcNG+ZMmXKs7FzPRBfP9eBtra2hmOPPTY7355XlmY40mlBo0ePrtT0S0frp0+fHhYsWPDCAQwvIrXXokXHZ6euFYu/6tbT7NHYsWOzdkzrJuRl1KhR2badgsjzlOP62TFmzJhtixYt2jh37tzeSj0jkAACcBjSaVj79+9/fNasWc80NzfvjVXPBZB0/cfMmTOzi9B5ZSlcpKAxZ86cSk2/NGg54YQTsiP6TsF6ZSl0jBnTGhYuXBjq6+srtf3te9JJJ2WnZwly5CnNvKVrkFL4rcxiptmPUtw3Hoh1m9rb2x8cPXr0f5hBZuQQQAAO0zXXXLNtyZIla8eOHbs5vmyPJTuPedGiRdlpRRy6FEDSaVjPDxopgJx22mlOvzoMjY2N/+E0rNR+y5Yty2aaIG9p9u30008/GH5TAOmsq6vbtnTp0qfvuuuujS4+H9kEEIDDdMIJJ5TPP//8Z1taWrbEl8+dhpVmQJx+dXimTJmSzXY8P4CkgUu6lub5pxPx8tLMR7rW4/l3DEsBJN0By+lXDIe03p166qnPDyAdcTvfFus2xW3ctR8jnL07wGF697vfXRo/fvzjkyZNWh8Hfuk0rN6pU6dmpxK52PfwpOs/jjvuuOz6hSQNoFM7ppkkAeTQpUHeMccck5X0PLVdasN0Q4R0Pj7kLZ2Kmk7BmjFjRjrAUIrr5f6JEydujNv4I3Gx2Y8Rzt4d4DDFzrR8zTXXbIkD5SdaW1u3xNftixcvLh0c/HHo0lH6FDhOPPHEbNCcThdKR+3TKUXPnxXh5aW2Skec052HUuBI6+Epp5ySnYfvVDaGQ9qe0/VHS5cuLdXX13fFQLL91FNP/eVNN930zAc+8AEBZIQTQAAG6MILL9wyevToZ+Pgry0O9vpmz55dWcLhSKetpWs+0iA6BZB03YJB8+FLR5zTdSAHA0g6/z6dzgbDJX0XSFwnyzGAdKYAsnz58mdOPPFEd79CAAEYiCuvvLIcO9b2OGBuiyGkJ51qcPA0Ig5POm0tXQeSjuCnI6bpbk5Ovzp86Xa8aSYptWFqy3QdjdOvGE7ppghpRjMGkb5Y2k877bT9MYz48kEEEICBmjFjRjldkJ4Gfc61H7h03ce8efOywXO6HiRdmO70q8OXZo3SXcVSmEslXQOSLk6H4ZLWv7Qepm07fS/I7Nmzy3H7ThekM8IJIAADcOWVVxZi59q8dOnSpvPPP7/GoHlw0izIeeedl123kGY/tOXApFmQdDrba1/72mwWRDsy3Jqbmwtnn312Ma6TjfF5y/79+409CU6yBThMK1euLH7wgx+c2tTUdGYc8J0xO5o7d27LqFGjdKwDlAbK6Y5Y6VS2FOacgjUwqR3TTEi6IUK6JildFwLDrBzXw/LChQvbpk+fvjOumxvi6z0/+9nPzISMYA6NAByGFD5+//d/f9rMmTNXlMvlN3R1dZ3Z19c3o76+viEW+9QBim0YOjs7s+DhDlgDF9fJrB1LpVLWji7mZ7ildbGjo6MvbtPb4jr5i/h40759+35w0003rb/kkkt8H8gIZQ8PHLXWrVs3Ng5cczvJPQ7mik1NTc2TJ08+L75cEcuyWObEQV9j7FST9DYGKA2eD9KWA6cdqTZpnYwl3f0q3TXwF/Hxp7t27frxgQMHdvf29g5rCKmvr++9+uqr91x11VUujs+RPRNw1Pn5z9dOqumrm3Dc8XMX1dWVp8TeK5d9WU0h1MXx3MT4f1tcDGFJKIYZoRyaqj151DemawNC6OoModfd9wesWBNCY1McTMVhSmdHGlRVFnB44taS2jGdZdcV27HPMfABq43bdX1DbMM4tO/qihVVvk6mEBJ/xS3x6aOlvvBguRCeLZXCsP3mcZMux/9/+46tu+574LGfrjEjkx8BBDhqxM6rcPdPNo2fMGP6a2NvtTzuwI6N1aPjniyXCwbigLMmRo04dAqTYnc5Of4O9dUePpIJk0IYOyGE3TtD2LW9UslhSwO96bNDiAOnsPmZGOZ8m8GApC1m6owQmlpC2PZsCAf2VRZw2EaPiTujqSG0Hwhh6+ZsH1X14n48DfLj3ihsjavC/hhC+uLjMP3mhTQ3sz+ukw811O7/6sx5rU/GXfpR0IpHv6rvOAGSFD5uvfWJidMmz78gdg8Xxl7jjLgDmxYXNfa/IweF2FuFUIz/3/r+MFL94SMZHwPIOAFk0NIdbbMAUgphUwwg6agzA5MCSPMoAWSwRrWGMDnuBVMA2bKpUnkUiPvzdLpTV9yD9s84xBSQPeavHPfre2O5a/qMcN2X/uF/f+9DH/pQmpHhCHObEaDqpfBx442Pjps6af7ySvg4M3Zc82KPNSGWUbmVcmiJ3VXT0RQ+AKpN3H2m8Wdj2qdm5cX2tzmV+Hs0p98lJqG63t5e4+KcaGigqh0MHwvmLL4g7rAuih3GWXHof0zstJpTJ5aCwHCo/HoADEBlVzqs0u8R+5RCNg/irKBcCSBAVfviF79Yu2D24nNK5bAiho4zY9Wx6YjZwc4DADi6CCBA1UqzH4sXnz0qhMKJMW6cmmY+Qjlkt7ytvAUAOMoIIEDVuuWWW2rOPPPE4wt15TkxeEyKVQ0xe9hvAcBRTEcOVLUYOOrjjqoxFEJdetlfCwAcrQQQAAAgNwIIAACQGwEEAADIjQACAADkRgABAAByI4AAAAC5EUAAAIDcCCAAAEBuBBAAACA3AggAAJAbAQQAAMiNAAIAAORGAAEAAHIjgAAAALkRQAAAgNwIIAAAQG4EEAAAIDcCCAAAkBsBBAAAyI0AAgAA5EYAAQAAciOAAAAAuRFAAACA3AggAABAbgQQAAAgNwIIAACQGwEEAADIjQACAADkRgABAAByI4AAAAC5EUAAAIDcCCAAAEBuBBAAYEQql8uhs7M9bNr8y7Bjx9bQ09OT1Xd0tIdnt2wIO3amuu6srr39QNiydVPYvv3Z0N3dlf0sMDACCAAwIqUQsXbtI+GjH/+T8IlP/WlYs/ahrD49/vUn/p/wVx/7k/D46gezuieefDR8Mr7nr/76T7KfEUBg4AQQAGDEKtbUhLra+tDX15uVrK5YE+trQ6nUG0spq6uJr2vie9OMSKncl9UBA1OoPAJUnZtvvrn23HPPP3fT+vLv9vaG18eqaXG3Vdu/lEM1flII4yaEsHtnCLu2Vyo5bPX1IUyfHeKANIRNz4RQGasyAFNnhNA8KoRtz4ZwYF+lchikWYwUKPbu3Z2FitGjxobm5pb+un27Q29PTxgzZnxoamrOTs/au29X6O7qCuPjRtXQ0BgKheEdRo1qDWFy3Cu2Hwhhy6ZKJYcsfv6lOBLeEz/FO6bMDNd88Yt/8+3LLruso7KYI8gMCAAwIqUAUV/fECZNmhqmTJ6RhY+krq4+TJwwJUydOjMLH/11dVnd9JhCGxubhj18wNFMAAEAAHIjgAAAALkRQAAAgNwIIAAAQG4EEAAAIDcCCAAAkBsBBAAAyI0AAgAA5EYAAQAAciOAAAAAuRFAAACA3AggAABAbgQQAAAgNwIIAACQGwEEAADIjQACAADkRgABAAByI4AAAAC5EUAAAIDcCCAAAEBuBBAAACA3AggAAJAbAQQAAMiNAAIAAORGAAEAAHIjgAAAALkRQAAAgNwIIAAAQG4EEAAAIDcCCAAAkBsBBAAAyI0AAgAA5EYAAapfuVCoPAOAQSn3K6WnhXIohUIop+fZQnIhgABVrlwfe4ja2DUIIQAMSkoehULojR3Kgfi4J1btiyHkQLEc2vft2yeE5ESHDlSl1EfccsstLeedt/ztWzaE3+ruDqfHnmFCoVCoqbyFQzRuQghjx4ewd3cIu3ZUKjls9fUhTJ0RQimuiFs2htDbW1nAYUkDj0nTQmhuCWHH1jgK3N9fz+FrGRXbcmoIHe0hbHs27TcrC3hRKXyEcuiKK+GW+Lg5ln2xek8oFx7sKG3+p+uu++LGq666Ks2McIQJIEDVSeFj9erVoxYuXHhu7C4u7usL55f6wrFxUVMMIPZbh6lYDKG2LoTYjqHPoHlQ6mIISXp7DPYGo6Y2lpr+EBe3bQYo7Q3Ttp3WxbRO8tJS+IjN1FMoh43lULivXCrfG5PGs4W+sOfRNU898Itf/HTLBz7wAa2YEx05UFVS+HjwwQebTz755PPiy4tieU0sC2MZFbOH00YBOGyxb0kzG3tjeSCW7z755JP/umvXrn2NjY193/nOdzrMfORLAAGqRgof6bSr5cuXp9CRwse5sSyIpVX4AGCgYv+S5tp2xrIqlm9ed911N7znPe/pSMvInw4dqAopfNx0003NMXyk0PGmWNJjmvkQPgAYCmmWozuWjtGjR5vxGEY6dWDYpfDx6KOPtlx44YXptKs3xHJODB3HxUenXQEwlNLVW67gGmY6dmBYpfCRrvlYvHjxwWs+spmPWD9a+ACAVx+dOzBsUvi46667Rp988snpmo8LY3mNmQ8AeHXTwQPD5rbbbht1xhlnnBOfXhyLmQ8AGAF08sCwuPPOO1vPOeecs+PTdM1Hekx3uzLzAQCvcjp6IHerVq0aXZn5yO52FUOHu10BwAihswdyde+9944555xzzopPs7tdxbLAaVcAMHLo8IHcpPBx2mmnpfDx5ljMfADACKTTB3Kxbt26sTF8LItP0612s2s+zHwAwMij4weOuBQ+5syZc2Z8+pZYzHwAwAim8weOqGeeeWb81KlTT4tPnz/zIXwAwAhlAAAcMSl8TJo0aVlDQ8NvxJfZ93zEMiaGj0JaDgCMPAIIcERs3rw5Zo8sfBw87Sp9w7nwAQAjnAACDLk08zFu3LhTY/hI3/NxdswcB0+7Ej4AYIQTQIAhtWnTpokvmPnIwkf/UgBgpBNAgCGTZj6mTZt22ovNfCT97wIARjIBBBgSKXzMnDkzfc/Hr818CB4AVInUH6Wxr/HvMDMwgJeQvruir6+vvvKSl5ACRqlUqp83b97J8eWKWIQPAKpK7JP64sOuWO6I5dt79+79+c6dO9vr6+t7r7766j1XXXVVKb2PfBgcwPPEHVTh1idundhS1zJxzsxjF9eWCxP7iraTl1OT/VNsbS40HldXrDspVs0fyvBRKodwIHYb6ZGBaYqfUEMxhBioQ0lDDlhao2tqYmNGvb1pLMNA1db2t2NaJ8tWyQErFguxFFPfFdvS+PnlxDaKDVRui0/XxOa6Oz5/qlwutsf6tj17dt63atWqNZdccokNOycGVlBxMHxMmzPn/DhKS99ZcWwcQ4+Kj6ZqX0Y5lAvxX40TasePH1szenKsGjWUMx99cXDyRHsI7bqFAZveEMLUWLq6ukNnZ1ellsNVU1MMzc3N2WCvra09e2RgmpubshDS0dEZenp6K7Ucrrq62tDU1JgF4vb2jkotLyVus9ksSOyhtsYuf1+hUO6Jj/vjkod6erq+OmnSpCdj92XDzoEAAtGvwsfM14Vy8aI4oF4a90HT49g6Dtt4ZeXiuJqxdeNqx9QNZfhIUgBZK4AMygwBZEikI80tLU1xfxEEkEESQIaGAHL44nZbir1U3BEWUq+SZkX2xse7mpparvv85//uex/60IfsJHPQPwcKI9z06dPrTl5+6usKoXBRoRzOiiPoY+PQYkxclK4BUV651DUVG2uaa5qG/KBGGuLt7Amhx1hvwFprQxgVSzrdxalDA5eydX19Xfa8pyeulAxYXV1dFuh6e3tDqeTUoYFKs3IphKRTKwW5Q5MOkpXLIe4RD/ZfKYgUtsR18vE777xj9U033aQhc+DUEka8NPuxdPnSGDYKJ8Sd0imxak4c6zannRSHp79FAaB6Vbqsg31WejxYyIkAwoh3yy231Jx83MkLa0PN7Lg7mhj3QQ3P2zEBADCEBBCIYt6oK8TgEZ/VhnRRNQAAR4QAAgAA5EYAAQAAciOAAAAAuRFAAACA3AggAABAbgQQAAAgNwIIAACQGwEEAADIjQACAADkRgABAAByI4AAAAC5EUAAAIDcCCAAAEBuBBAAACA3AggAAJAbAQQAAMiNAAIAAORGAAEAAHIjgAAAALkRQAAAgNwIIAAAQG4EEAAAIDcCCAAAkBsBBAAAyI0AAlWkXC5npVQqvWxJ7wEAOBoJIFBlSn2l0NfX95JFAAEAjmYCCFQxMx4AwKuNAAJJORTiv2IZXoVCIRRriqG2tjYrxWL/JlpTU/NcXXqe3gcAcDQSQBjx1q5dm0bzTTF/NMQQUtNfO3xSuHguYJTj64N/KvW/thwA4CgjgHDU+9M//dPRH/zgB4/50Ic+NPcrX/nK1LvuumvCAw880FJZ/LJWrlxZfOMb3zgpDunnFIphUqxqyMb8VSC7ID1NzaSwIW8AAK8SAghHtdtvv71p3rx5J7a1tf3hY4899sGHH374Pz3yyCNv3bhx4/mf+tSn5nzzm9+cuGrVqtGVt/+aOMAv/N7v/d7kWbNmvS4+P6cQinNDuTAqLhr27SIFj+dk+UMCAQBeHYxqOCzXX399w+TJkxsrL4dVTU1NYfHixbPuvPPOiz7zmc+88Yc//OHUWL2/oaGhbcaMGQeOP/74TaeccsrTs2fPXv/kk0/+Ytq0aftjWOmdOnVqqb6+vtjY2Ngyf/78C+LPXNhXLp2+pWfbnM5yV2OhCs5vSrMf6eLzdNerYrEQ/661VX/a1fiasWFc7ZjKq6HTF7PY2vYQ2vsqFRy2GQ0hTI2lq6s7dHZ2VWo5XOmarJaWprh9htDW1u7mEIPQ3NwUamtrQkdHZ+jp6a3Ucrjq6mpDU1Nj6O3tC+3tHZVaDlXchktxKLwnPr2jubn5ms997rPfvuyyyzRkDgQQXtFXvvKVFDga169fX7906dKZU6ZMmR8Hw8M/S1Au19TV1U1cu3btqVdfffW5P/nJT2bFuu64qC/+fj1xsLA3lm1NTU07Fi1atGHZsmVPn3TSSdvj8574d6ifMGHClHHjxp0ag8yp5VCevblna2N36KmKbSILIOl2vKW+7KLzNPARQCoVHDYBZGgIIENHABkaAsjgCCDDRwDhJV177bWjfvrTnzYvXrx4wf79+xc99dRTc3bu3Dm7p6dnQm9v77BfrB13HHFMXmhsb2+f9OSTT87YsmXLwdHvwVFBGrJ2xtIVB/F7Y9leX1+/f86cOb1nn312zfLly0dfcMEF02IYmVooFhqe7d1W6Mryy/BLA5uD3/nx/LthVTMBpHoJIENDABk6AsjQEEAGRwAZPgII/0G6ruKOO+5oioP101etWnX2Pffcc2ysnlpXVzdp7NixE+OAvbmlpaUq1p00ExNDUf0jjzzSsGnTpheO0rPRQRw0lBsbG0tx59I5evTo3hhAykuXLi2cfvrpNeedd17j5MmTa4s1xcLmnq2hmgJIb+yU07UghxJAXjgQGo7ZEgGkegkgQ0MAGTrVEkDSZ9jZ2Rl27NgRGhoawrhx4+Kgvi4O5tvD7t27s+ex3wuxP4yfeVvYu3dvNit9sG64Z6YFkMERQIaPAMJ/sHbt2rO+853vLP/Wt751atwBL4gD9cnLly9vPvnkkxtnzpzZ0NTUVKimI/IxfBQ+85nPFK6//vqsM0kdQuoY4u8ZO7nmMGbMmHDKKaeUzzzzzOxx3rx52bL0nhhMCnGAX0gD/WoLID09PdnzlwsgBwdA2ZcVluLzuEWnzlEA4fkEkKEhgAydagkgad/5wAO/CP/zf34mfrYt4Y//+NKwZMkp4d577w2f+9zfZvvTSy/9v8Jpp52W1X3+8/8nm53+0If+JJx88pJXPDh0pAkggyOADB8BhF/zyU9+cvQTTzxxSRzUXxIHvot/8zd/c/xb3vKWhilTphQaGhqywXo1hY/koYceCh//+MfDDTfckAJFaG1tDXPnzg2nnnpqOOuss8LixYuzo1oHQ0c6ovXCv0Mp7oOqJYCkQU0qvb29WZBIHeBLtXnqPNO1ItnPxD/pfQIILySADI20fQkgQ6OaAsgjjzwc/u7v/i5+voXwB3/wh2Hp0mXhwQcfiGHj8/F36w5/9Ed/nNWlvuaLX/x8Njvyf//fHxJAXgUEkOEjgPCcdLH5s88++9prrrnmt4477rjX/pf/8l9mnHHGGQ2jRo0qpEFttVqzZk345je/mU2hL1u2LHYUS0MMTNl0egokKXSkTuLlBuXDHUBeOJBJR9j6YsdYrASQg7/7C/8Ozw8f6bFYiAEkdurDQQCpXgLI0BBAhk41XQOSZpsPHDiQ7XfTLEg6WPX8utGjR2f9SW9vT9i//0C2LM2sOwXr6CeADJ/qHVWSq7gRFnbt2nXGl770pYvijvasP/iDP5h9/vnnN7e2tlbdjMcLpXNxTznllPDa1742LFmyJMyYMSPrMFIncnC245U6iTSA319qC3HYX6nJX5rxOHjheSpJFi5iOfg6/T1+7e8SnxaK/a/T+9Lz4fq8moqNWRlqaYi3sycOEoz1Bqy1NoRRsaT1Kw1UGJi07dXX12XPD54iycAc3Den/d7B/dtwSQd5Dp6ym36vF9al02CTYrG/LoWUVDfc4SOpqSlmIaRUSqftuph/AGLPUkg3q9kYP/tH7r77rsdvuukmDZmD6h5ZkpuvfvWrDX//93+/OIaQZe9617uOPeecc1rSzEdlcVVLHcGECROyWY90+lW1dAyHI42tD4aLVFLHfLA89/pF7nycvb8ykZkCCABAtRNAyGY/Tj311OOfeOKJRTNmzJh+yimntEyePNnsWI5ijsiOuKXw9GIlOw2r+Kuw8XwHT786GF4AAKqZAEK48sorC3fccce0tra2GQsXLhw9ffr02jTgJT9ZtKgEiJcrL5I/nhPf0f8eAIAqJoAQTjjhhNoHHnhgRk9PTwogrZMmTZI+jiJp9iM7/Ur2AACOAgLICLdy5crim970poXx6bGjRo2aNH369IbRo0cbyh5N0qUflcs/zIAAANVOACFd4NzS29s7ety4cemWu0WnXx1d0jUgifABABwNBBDSwLVQKpUKdXV16Za7RrFHI58aAHCUEEDgKPbc9R+RGRAA4GgggMBRLn1HSHabXgEEADgKCCBwFEuhI/uSwsoXFgIAVDsBBAAAyI0AAgAA5EYAAQAAciOAAAAAuRFAAACA3AggAABAbgQQAAAgNwIIAACQGwEEAADIjQACAADkRgABAAByI4AAAAC5EUAAAIDcCCAAAEBuBBAAACA3AggAAJAbAQQAAMiNAAIAAORGAAEAAHIjgAAAALkRQAAAgNwIIAAAQG4EEAAARpRylB7iP6X+x6yQEwEEAIARoxI+eguFwoEQCvtizYFY1b5v3z4hJCcCCFQUC8W4Qfgz0D9xR15pyaFXG//TNcqAS/znOelzUgZe+ttQOw62HPRiy5RDLwe37vT0xZYr/7FE5fjYF5/uiDFkbaFQ/kV8/dCmTc/cF5d1pzdw5P1qL8CItHLlyuLll19+5qWXXvq+9evXX3zFFVfMWLFiRV1l8YhRjn96y32hnM3EHln9h1d+/SDLwVfp8fkb5a+/N/2WLyf9ZP874m42e/yV/pr07yO10acAV1uorbwaOuk4VXcspZf/y/MyUgipL6a2LIdS6civ469ehVAs9m9BpWyFtFIOVCEd8IltmdbH/oPRDMTzBtW27UMU17fUUG2x3dbG53fGdnvw6aef/vHPf/7zTR/4wAd6+t/FkXakxiIcJQSQfqkDfKXh/VDK/k/P63Rf7Nnz9dce/A2f/56DgeKFm/LB9/xqaRY+Kh3VkXCk/vsGJ0MjfTZ9mnLQUpizTg6NtE5qy8HTjocntlUKIAdiWRPLqvj6/rvvvvv6c845Z1daTj6O3GiEo4IA0q8U90fbe3eFnnJ1Hvz4VdfyHzuZgxHk+frflf7dvyyPDX1MTWsYXdNSeTV0Usfa0dHp6N4g1NfXx1IXdnSHsN3xvQFrLIYwuzFuT3F/kdZJg76BKoTGxoZQU1MMXV3dobe3t1LP4aqtrQ0NDfWhr68vdHams4esk68kbrepkdJK92y5XHi6UCiv6+sr3/HUU2u/s2zZsh3ZmzjiBJARTgDplwLI5p6toavs9M+BGl8zNoyrHVN5NXRSX9HW1h47WAFkoBob6+MgpSFs6QphUywMTAogC5v7A0haJwWQgWtuboqD55osyPX0CCADVVdXG5qaGmOI6wvt7R2VWl5JJYT0xK15f3y1rVAo3NPS0vStj370oz+56qqrDARy4CJ0AABGjBg40gH4uhg+0lGzibGMLZUK41pbW2vSco48AQQAgBGlEkLiOLhQUy6HFDycFZQjAQQAAMiNAAIAAORGAAEAAHIjgAAAALkRQAAAgNwIIAAAQG4EEAAAIDcCCAAAkBsBBAAAyI0AAgAA5EYAAQAAciOAAAAAuRFAAACA3AggAABAbgQQAAAgNwIIAACQGwEEAADIjQACAADkRgABAAByI4AAAAC5EUAAAIDcCCAAAEBuBBAAACA3AggAAJAbAQQAAMiNAAIAAORGAAEAAHIjgAAAALkRQAAAgNwIIAAAQG4EEAAAIDcCCEe93t7e0NHRkZWenp5QLpcrSwAAqDYCCEe9J598Mvzd3/1d+PSnPx1uuummsGnTptDZ2ZmFkVKpJJAAAFQRAYSjXnd3d7jvvvvC3//934c//dM/Db/zO78TLr300vB//s//CXfccUfYsWNH6OrqymZKUiABAGD4CCC8ojSD0NfXlw3gU0kzC9VU0u+WHrds2RIef/zx8LOf/Sx861vfCp/61KfCH//xH4ff/u3fDn/xF38Rvvvd74a1a9dmsyPpZ8yOAADkr1B5ZIRauXJl8fLLLz/z0ksvfd/69esvvuKKK2asWLGiLi1LA/Q0UN+9e3dYt25ddqrT1q1bw969e7MBf7XYuXNnWLVqVRY+XixQFIvFMG7cuDBlypQwefLkMH/+/HDCCSeEk046KZxyyinZsrQlbO7ZGrrK3ZWf4nCNrxkbxtWOqbwaOukzbWtrj+ui2auBamysDw0NDWFLVwibYmFgGoshLGyOu4tyKVsnHcAYuObmplBbWxM6OtLpsr2VWg5XXV1taGpqDL29faG9vaNSy6GK23DsWAp74tM7mpubr/nc5z777csuu0xD5kAAGeFeKoCk8LFx48bwox/9KNx8881hw4YNWRBJg/nW1tZsMFMt9u/fH+Lvnp1q9VIKhf5Vva6uLsyZMyecc8454bWvfW248MILw/Tp00OhWBBABkkAqV4CyNAQQIZOtQSQg59h6vNSP5H6uIOv07IXq0uvD/Ypw00AGZz4eQogw0QAGeFeLIC87nWvq7vrrrvCP/3TP4XbbrstDl4aw/HHHx+OO+64MHPmzGzGoL6+vvJfGH5PPPFE+MY3vhFuv/32Ss2vAkd6TL//okWLwpIlS8LChQvDggULnpsNmTZtWuwI04jCDMhgCSDVSwAZGgLI0KmWAJJCxVNPPRm+/e1vZ33BW9/6tjB37txsRv173/tu1n/8xm+8NcybNy+sXr06XH/9D2K/Ugxvf/vb4/uOGfYgIoAMjgAyfASQEe6FAeTDH/7wjLro6quvDg888EBYtmxZePOb35ydrpQG7KNHj46dRm3lp6vDQw89FP7yL/8yfOc738k6kxSOUrBIoSmdYpUCx+zZs7OZjvR3SAGqpqam8tP9SnEfJIAMjgBSvQSQoSGADJ1qCiD33ntP7EOuysLGf//v/28466yzwp133hk+8Ym/jp9xCLFfjHVnh7vuujN8+tOfygb6se+M/ePpz82ODBcBZHAEkOHz66MwRpzzzz+/cO655868/vrrT969e/eCCRMmtP74xz+uSadf/cZv/Ea45JJLQlyeDeibmpqGfWf7YtJ1KY888kj2+1100UXZ7/zOd74zXHzxxeH1r399OPvss7MQksJHOsL1Yn+Hcvyzv9QW+uIfBqap2JiVIyFdc2SwN3BpoJcOHByIq/d+q/iA1RZCmFiXjtyVs3WSgUunw6Z9cTXcnbCxsSHMnj03LFmSDljND62tY7L+ZM6cVLckHH/84uzgWwoo6SyA/rrjw6hRo4Z9BqSmppiFkFIprZOupRmA2LEUOuPjxrhOPnL33Xc9ftNNN2nIHJgBGeGePwOyZs2ai+Mgb0bsEOre8Y53ZHePSjMH1W7Pnj3hsccey76IcMaMGVkH0dLSclgdgxmQwTMDUr3MgAwNMyBDx0XoQ8MMyOCYARk+1Xc4m2Gza9eu7Da1S5cuzS7OPhrCRzJ27NjsovI025Gu9aiGo1IAALw4AYRMOp0g3c42XSeRwseJJ55YWQIAAENHACHT3t6efUFfuktUuttHOtcVAACGmgBC5sCBAyF96WD6gr50i1oAADgSBBAyXV1d2XUT6f7n48ePr9QCAMDQEkDIpFshpu/GSHePSrdHBACAI0EAIZNuJ5kCSLovuztIAQBwpAggAABAbgQQAAAgNwIIAACQGwEEAADIjQACAADkRgABAAByI4AAAAC5EUAAAIDcCCAAAEBuBBAAACA3AggAAJAbAQQAAMiNAAIAAORGAAEAAHIjgAAAALkRQAAAgNwIIAAAQG4EEAAAIDcCCAAAkBsBBAAAyI0AAgAA5EYAAQAAciOAAAAAuRFAAACA3AggAABAbgQQAABGlHJUecowEEAAABiJemIU6SoUyt01NaGvUkcOBBAAAEaMcrncVygU9oVQ2BTLunK5sOHAgQNPjBo1qrfyFo6wQuWREWrlypXFyy+//MwVK1a87/HHH7/4S1/60ozf/M3frKssHjHSTGxbqT30lO17BqqhWB+ai02VV0MnfTY9Pb3xsVSp4XAVizWhrq42tPWFsN8qPmA1scccH/eOxZDWyZ5s3WQgCqG2tiaul8XQ29sXSiUHngcqtWFtbe1z+8m4x+xfwEuKbZWaqyM+XV8ohIfii8fb2tp+ftttt9339re/fX//uzjSBJARTgABAEaKGDjS0awDsTwWy62x3Pezn/3shxdccEGqIycCyAgngPQrxf3RgVJb6HOUfcCai42hodhQeTV00qEqR5sHp6amNjvinI6QOto8cIVCMZtJ6i0Xwu7etN+oLOCwjYu9TH2hHHp70zppvztQaXYzbdupDdNskhmQV1YqZZ1JZyy/TDMgseke7+vrufm+++67K4aQVE8OBJARTgDplwLI5p6toavcXanhcI2vGRvG1Y6pvBo6KXi0tbWHvj6DlIFqbKwPDQ0NoaurO3R2dlVqOVzpdJeWlqbQE4phTVsIPcZ6A5IGHsc2hTCmthw6Ojorpw4xECkQNzU1ZuGjvT2dVcShSLMghUIhzXjsjF3Ms/Hx3paWxm9897vfvf+SSy5xlCYHLkIHAGDEiOGjGEPI6FimxzhyTKFQnlUsFudv2LChvvIWjjABBACAESWGkDQZVxefNZTLhfq+vlDTv4Q8CCAAAEBuBBAAACA3AggAAJAbAQQAAMiNAAIAAORGAAEAAHIjgAAAALkRQAAAgNwIIAAAQG4EEAAAIDcCCAAAkBsBBAAAyI0AAgAA5EYAAQAAciOAAAAAuRFAAACA3AggAABAbgQQAAAgNwIIAACQGwEEAADIjQACAADkRgABAAByI4AAAAC5EUAAAIDcCCAAAEBuBBAAACA3AggAAJAbAQQAAMiNAAIAAORGAAEAAHIjgBB6enpCb29v6O7uDqVSqVJ79Ni0aVO46aabwo033hjWrFkT2traQrlcriwFAKCaCCCEQqFQEwNIMQWQvr6+Su3RY+fOneGf/umfwkc+8pHw53/+5+GTn/xk+NrXvhZuvvnm8Mtf/jJ0dnYKJAAAVaJQeWSIxEFv7UknnTSlWCzWVKqqWvw966JTL7jggrf94he/WP6P//iPU3/rt36rrrL4qPDQQw+Fv/zLvwz/+q//mgWN2traMHny5LBgwYJw4oknZo/z588Pc+bMCdOmTQvjxo1Lf+/KT/crlUthc8/W0FXurtRwuMbXjA3jasdUXg2d9Jm2tbXHcHz0zc5Vi8bG+tDQ0BC6urpjIO+q1HK40n6jpaUp9IRiWNMWQo/jGgOSBh7HNoUwprYcOjo6Q09Pb/8CDltdXW1oamoMvb19ob29o1LLoYr9S+xYCnvi0zuam5uv+dznPvvtyy67TEPmQAAZQu9617uaRo0adeJpp512eldX13FpZqGyqGqlABIHJhO/8IUvzH/00UfnfvCDHxwVw8hREZ4O2rhxY7jmmmvCbbfd9qIzHfX19VkAOeGEE8Jxxx0XFi1aFGbOnBmmT58eZsyYEeJOJ5TjHwFkcASQ6iWADA0BZGgIIENHABkcAWT4CCBD6L3vfe/EZ5999v1xhT45ho8zY1VD/5KqVYi/ayoNa9asadm9e3fzggULipMmTTqq1ot0zcf69evD9u3bKzUvLc2OpJmQ17zmNWH58uXhDW94QzYrUigWBJBBEkCqlwAyNASQoSGADB0BZHAEkOEjgAyh973vfS179+69YPbs2UtiR9Ucq6r+Gps0AxLL1J///OeLd+7cOX/FihWj4gD9qFovYujLrvd4/PHHKzW/LoWOKVOmZDMe6fGYY44JCxcuDMcff3w4+eSTw/jx47MtQQAZHAGkegkgQ0MAGRoCyNARQAZHABk+AsgQu/baa+vf9ra3LSwUCtU++3FQQ09Pzwlxg7to9erVZ19xxRWTXve619VWlh0VHn744fBXf/VX4Tvf+U42WK2pqQmjRo0KEydOzK4FSaHjpJNODkuXnhYWL14cYkDMQkn8jLKSOAVr8ASQ6iWADA0BZGgIIENHABkcAWT4CCBHSFypj4q2veWWW2rOPPPM13zoQx/6T0888cRFH/nIR6avWLHiqLsI/VOf+lS49dZbs9BxcJYjXfNx2mmnZRehp0CSBg+pPD94HOQi9METQKqXADI0BJChUU0BJO1fdu3amc2gt7S0ZNcLjh7dGnbu3BFinxi3m8Ywb9680NraGnbs2B7WrVuX/dyCBceFMWPG/Ie+JG8CyOAIIMPHbXiPkLhTKh8NJQaQNKrr7o3S6/7f/uiSOoazzz47/NEf/VH46Ec/Gr785S+Hz3zmM+EP//APw7Jly7K7XtXV1WWzHgcDCACkAPLUU09lt2//H//jk2H16tVZ/RNPPJm9/tjH/irW9Z/em9736U9/Kvz1X38sCyfpZ4GBEUA46s2dOzcLG3/yJ38SXv/612czIOnOVylwpNOxUuAQOgB4MWkm45RTTgnz5y/I7op4sO6EE9Jt3I8LTU39dePGja/Upfc1ZXXAwAggvCqkGY50ikl6NMsBwKFI/UUKGX/+538RPvKR/y+7QUmSbtf+F3+xMivphiVJCh4f/vCHw1VX/WVcfrx+BgZBAAFe9dKpEk6XAF5MCiFp1ryxsTHU1vZfApnCRTqg1dTUlM2m/6quPpsROTi7DgyMAAK86qXw0dfXJ4QAQBUQQIBXvXSk0hFLAKgOAgjwqpeCh/ABANVBAAEAAHIjgAAAALkRQAAAgNwIIPAq4nazAEC1E0DgVSIFj1KpFPp63W4WAKheAgi8irjdLABQ7QQQeBXJbjdbFD4AgOolgMCrhO+6AACOBgIIAACQGwEEAADIjQACAADkRgABAAByI4AAAAC5EUAAAIDcCCAAAEBuBBAAACA3AggAAJAbAQQAAMiNAAIAAORGAAEAAHIjgAAAALkRQAAAgNwIIAAAQG4EEAAAIDcCCAAAkBsBBAAAyI0AAgAA5EYAAQAAciOAAAAAuRFAAAAYUcpRfCjFZ32FQuhLVdkCciGAAAAwYlTCR3cse2LZkR6LxfKu2traGEjIQ6HyyAi1cuXK4uWXX37mpZde+r7169dffMUVV8xYsWJFXWXxiFEql8KO3t2hu5z2RwxEa83oWEZVXg2d1E90dnaFvr50gIqBqK+vj6UudHf3xGIdH6hisRgaGxtDb+w6n+kMocfx0gFJA4/pDSGMrimHrq7u0Nvb27+AwxYHzKGhoT7uH0vZftJB/FdWCR89sTxbLheeLhTK60ql8l3PPLP+eyeddNK2QqzI3sgRJYCMcALIr6QQwuAUC0dmUrW/v2AwYqeqHYdIass+TTkoafBRjP+yTg6ebfvwxLZKnf2BWFbHsiq+vv++++770RlnnLFL+MiPADLCCSD90s67N/6xEx+4mkJNVoZa+kxKpfS5+GwGqhCDYTGO9kqlknV8ENJAL5XEOjk4aTYpDUG6YxNmTcmA1MbVsS42ZVof+8fVvJK4D0wN1R635bXx+Z2xPLhhw4YfHXvssRsEkPwIICOcANIvzX5s6dkeupyCNWDja8eGMTWjK6+GThowt7d3ZKcYMDDpFI1U0ukuqTAwadDc3NwUn5VDW1uHMDcIzc2NoaamNvyyM4Q9zsAasPGxt57VELLT2Do6YmPyiuJ2mzbcdE7vjkIhbIwvn4nD4Xu2bdvyjQULFmwSQvLhInSoKPkzuD9H8Ohb6i+UgZc0YD7oxZYrh15SW6aHF1umHE6prI+xpNPZlIGXg168nZUXlqgQH2timRhfHlcuF06Jz5fMnn3M6X/7t39bnzUmR5wAAgDAiFHoP5cyhZCW+Dgm1oyKVc29vb3GxTnR0AAAjCiVEPLCQk4EEAAAIDcCCAAAkBsBBAAAyI0AAgAA5EYAAQAAciOAAAAAuRFAAACA3AggAABAbgQQAAAgNwIIAACQGwEEAADIjQACAADkRgABAAByI4AAAAC5EUAAAIDcCCAAAEBuBBAAACA3AggAAJAbAQQAAMiNAAIAAORGAAEAAHIjgAAAALkRQAAAgNwIIAAAQG4EEAAAIDcCCAAAkBsBBAAAyI0AAgAA5EYAYViVSqVw4MCBsG/fvtDX11ep5YXK5XLoaGsPB/btD709vZVaqkH6bNrb28L+/ftCb29PpZaB6Onpju24P3R0dGTtysD071f3Z/vW9ByGW29vb7Ztt7W12bbJCCAMq+7u7nDDDTeE6667Lmzbtq1SywulHfY9t90T/u1b/xY2rH+mUks1SJ/NHXfcEf7lX64L69evr9QyEBs3bgzf/va/hFWrbjVwHoTOzs7wox/9KPzbv3037N69u1LLiymXS2HPzh3hl0+sCbt3bA+9PQ4iHAl79uwO3/ved8ONN/4oWz9BAGFYpQDy9a9/PXzyk58M69atq9TyQmmQe8uPfhr+/n/8XXjwngcrtVSD9NnceOON4TOf+Uy47777KrUMxLp168Pf/M3fhH/+538OPQaCA5YGeN/4xjfCZz/7t2HTpk2VWl5MCrq33viDcOUf/V645vN/G3ZsfbayhKG0a9fu8PnP/3340pe+mM2EgADCsGpoaAgXX3xxuOSSS8KECRMqtbxQoVAIZ5x3Vnjre94WZsyeUamlGqTP5jWvOTe8613vCrNnz67UMhCzZs2K7fib4dxzzw3Fou5poJqamsKb3vTG8La3vTWMGdNaqeXFFUJjU0sYPWZs6OvrDT3dgu+RMG7cuLg+vj1cdNFFsd+vr9QykhUqj4xQK1euLF5++eVnXnrppe9bv379xVdcccWMFStW1FUW56K9vT2bCUmdZgokw6FULoXNPVtDV7m7UlN9ujq7QndXV6irr48dZmOltnqMrxkbxtWOqbwaOmmGoa2tPQ4OqveUnHTEuSt+NvXxs0nrcbVpbKzPtq2uru74u3ZVaqtPug4snSOewkdLS0sW7qpJ/+/VFNfJkK2Tad2sVqkd03n3aX1M62W1aW5uCrW1tWF9Zwi7hnnM39XZEdoPHMg+3+ZRo7N97NFifOyt58buIH3W7e0dldrqk7aVdE1SemxpaQ41NbWVJcMr/j6xYynsiU/vaG5uvuZzn/vsty+77LLqbchXEYeYGFZp+jvtkGpqarLOiJeWQlIhdpC1ddqp2qR1OA1e6upyze6vOimApHZM+4JqCx9Hk4PXz9ivHpqGxqYwbuKkMGb8hKMqfBxN0radtum0PhaLNZVaRjIBhGGVzvP+/ve/H66++uqwefPmSi0vlAYUd/3sznDN1f8cnlr9ZKWWapCdQ37rreGrX/1KWLt2TaWWgdiwYUP45je/kd2YIh3RZWDSjNwPfvD98I1vfD3s2LGjUsvh6OnuDvv27A7tB/Zng2cGZ8+ePeG6667NSjrrAQQQhlU69eraa68NX/rSl7I74PDi0hH22366KvzTF78R1jxikFtN0mdzyy03h3/4h6vDo48+WqllIDZu3BC+/OUvhR/+8PsCyCCk0wHTnQVTANm2bWullsOx9pEHw//88H8L//OKy8KTjz5cqWWgdu3aFf7xH7+WrZfp9EAQQBhW6bz0t7zlLeG9731vmDhxYqWWF0pT12eed1Z42396R5g5d1allmqQPpt00fR73vNbYc6cuZVaBiJdxH/JJe8J559/QXYqFgOTrvtI+9V3vOOdYcyYsZVaDkd3Z2fYt3t32L1jW3aNCIOTbjLzznf+Znjzm988bNd6Ul2ciDfCnX/++YU4eJp5/fXXn7xnz54F5513Xuuxxx6b23qRBhnz588Pp556apg8efKwna9cjn/2l9pCX/xTjdIgd+rMaeHEU08I02ZMDXX11XetQVOxMStHQjpVL800VKP02UyfPiMsWbIkzJgxoyqvA6mt7b8WIJ1K0ttbvaeTjB49Opxwwglh0aLjs0F0attqkn6f+sq2V823CU7XfsybNy9bJ8ePH5+9rjZpO0n7/z29IXRU4f0lxk2cHE57zXnhzAsuDDOOObZqrw1pih/t2NhtplNBe6r4S2obGxvjdr0onHjiiWHUqFHVdIAhdiyF9MUkG+M6+cjdd9/1+E033WT6NQcOMTGs0qAy3aEl7ZBcwPvy0iCyqbk5NFThHbBGujS4b46fTepkGZzUjqmYARm4g/vV1I72qwPTGAPwtNlzw8xj5oXmllGVWgaunO0f0zrpxggk9vAMq3QNyDXXXJN9+ZhrQF5aOrr1sxt/Fq7+X18Kax5ZXamlGqTP5ic/+XH43Of+t2tABmnduqezLyv713/9tmtABqGjoyNce+23whe+8PmwdatrQIZKqa8vuxV6d1enC9MP0/btO8JXvvIP4Wtf+2p2O14QQBhW6TSG733ve9m3ofvG3peWjmjefetd4V++dm1Y++jaSi3VIH02t922Krvg9/HHH6vUMhCbNm3OvsE7fbN8b68vhBuodGDn3/7te+Fb37omDvy2V2oZrB1bt4Rv/8Pnwyf+n0vDnT+9KZRKQsih2rdvb7Y+fve733UXLDICCMMqXYz2zne+M7z//e93EfrLSKejnH3Ba8K7f+89Yc6xcyq1VIP02Sxffn74nd95fzjmmGMrtQzE3Llzw2//9m+HCy+8sGq+qOxolK6feevb3p7dGGHs2KH/ctCRqm3/vrBuzePh0fvvDts2baza69Kq0cSJk+L6+J7w9re/3UXoZFyEPsJVw0Xos2bNCieddFKYMmXKsJ0bWu0XoSeTpkwMC09cFKbOnFqV32w8Ui9CT9INFBYvPiHMmDG9Kj+bo+Ui9PQNyQsWLAjHHXdcdq64i9AHJu1XZ8+elV3Qnw7sVGOYq/aL0F9MY1NzmD1/QTjlrHPDolNOC61jxw/7Onq0XISe9otxbJHdYKK1tTX77KuEi9CHiRkQhlXaeae7tEydOtUFvC8jtdPoMa1h0tRJoWVUS6WWapA+m9bWMVmAbnGx6qDU1dXHMDcl7hMmVNMA5aiT2i61YWrL+npHm4dKU0tLmL/4pHDmBSuyi9Oto4cu3YktzYJMmjTJRehkbD0AAEBuBBAAACA3AggAAJAbAQQAAMiNAAIAAORGAAEAAHIjgAAAALkRQAAAgNwIIAAAQG4EEAAAIDcCCAAAkBsBBAAAyI0AAgAA5EYAAQAAciOAAAAAuRFAAACA3AggAABAbgQQAAAgNwIIAACQGwEEAADIjQACAADkRgABAAByI4AAAAC5EUAAAIDcCCAAAEBuBBAAACA3AggAAJAbAQQAAMiNAAIAAORGAAEAYEQpRwefVgo5EkAAABgxKuGjVCgUOguFcnssnfF1d7aQXAggUFGIf6hWPpvB0X5DqRCbMxUGLzWjMvDC4TsYPmLZFV89XS4XHo01a/fu3fXArFmzhJCcWH9HuJUrVxYvv/zyMy+99NL3rV+//uIrrrhixooVK+oqi0eMtD/qKneHvviHgamNfxqK9ZVXQyd9Nn19peyRgSkWC6GmpiaUSqWsLRm42tqa7LGvry+uk9lTBqCmphhDXDF0xNWx2yo5YLVxFNcSV8n+/aT+61DEtkprXHuhEJ6Ku8T7YhZ5ePv27T99+OGH11x88cVd/e/iSBNARjgBpF85nf5pMDEohSN0SFjwGLyDn422HLzUltpx8KyTQ+NX7Zg9cAgqAeRALI/Hcmu5EO678/bbf3juuefuT8vJhwAywgkg/Upxf7S7b2/oLTuCNFCja1pCc7Gp8mropAFKZ2d3fHSYdKDq6+tCbW1t6OnpiaW3UsvhKhaLoaGhPlsnu7rSOmnUN1CpHVN7dnf3OHI/CGm7rqurDe2lQtjm5KFDErfbtOHGDThs7CuENfHV2s5SuG3dQ2tufPu5xwshORFARjgBpF8KIJt7tmanYTEw42vGhnG1Yyqvhk7qK9ra2p06NAiNjfVxwNeQDZo7O51hMFBpwNzS0hTXyZCtkwLIwDU3N2Wns3V0dArFg5DCR1NTY9jbWwhPd8T9ZaWel5dCSBwAd8b22lMohC3x+b3HNhf+6X999MpVV111lRUyBy5CBwBgxChEMXw0xqcTY2qbHsvkWDO9tbV1xB2AHS4CCAAAI0oKIfGhJhRCCh3pen5j4hxpbAAAIDcCCAAAkBsBBAAAyI0AAgAA5EYAAQAAciOAAAAAuRFAAACA3AggAABAbgQQAAAgNwIIAACQGwEEAADIjQACAADkRgABAAByI4AAAAC5EUAAAIDcCCAAAEBuBBAAACA3AggAAJAbAQQAAMiNAAIAAORGAAEAAHIjgAAAALkRQAAAgNwIIAAAQG4EEAAAIDcCCM8pl8uVZwAAcGQIIGQaGhrC/v37Q3d3d6UGAACGngBCmvnoGTt2bM+OHTt6d+3aVe7r66ssAQCAoSWAjHBXXXVV6eGHH147adKkDTU1Nfs2b97ce+DAgcpSAAAYWgII4YYbbjhw+umnP9Xa2vrMhg0b9u7evbvX9SAAABwJAgjZLEhHR8ftkyZNuu+RRx7Z8sQTT3Q7DQsAgCNBACFz++2373jzm9/86J49e9Z/7Wtf27d69ereyqKqVyqVnitmbgAAqpsAQibNgkyfPv2OJUuW3H3PPfds/uIXv9j19NNPx/F89Q/of/nLX4avf/3r4R/+4SvhrrvuCrt3734ujAgkAADVpabyCOHaa69tGz9+fPP27dsn33nnnaNjAGmcOHFiTSyF2traUIgqb60qGzZsCN/85jfDddddF+6+++4QA1R49NFHw9atW0OxWAwtLS0h/f7JS/0VYlQJ+0ttoS/+YWCaio1ZORJ6enqEyUGora3JtoF0amVvr3V8oNL+o76+Lnue1kkGrq6uLts/9/b2ZgeMGJiammJsy9rQVSqE3UfNeQtVpRw36844Mtg4vj48cv9ddz5+0003ackcCCA856qrrgpXXHHFvhNOOKG0Z8+e4k9+8pPi7bffXoidRGHChAlhzJgxKYNU3axZChrxdw2rVq0K69atCw8++GC4//77s5JmRFJ55plnQmdnZzYIS4EkdXzPJ4AMngBSvQSQoSGADB0BZGgIIIMmgAyTqjyizfB68sknJ8cyNw7qX3v33Xef1t3dPSuGknHHHnvs2Obm5tGNjY31NTU1VbPubNy4seb666+vue+++wovNkhNA6+ZM2eG+PuHOXPmhIULF4Z58+ZlrxcsWJAFkrQlbO7ZGrrKvohxoMbXjA3jasdUXg2d9Jm2tbXHwbNBykDFTTb7stGuru4YxLsqtRyu/hnVprhOhmydFIoHrrm5KQvGHR2dMcwZ7w1UCh9NTY1hb28hPN2RDqZxOOI2XIoBZE+hHO6YPypc8+XP/s23L7vsstiSHGkCCC8pBpAp69evP/aJJ5444amnnpq3Y8eO2XFjnVEoFFrjY1XMnsXfo76tra01/p7jd+7c2RCrnr9OpxFr6tkO7pOLMYzUzp49u/Ca17wmLF++PLzhDW8I06dPD4ViQQAZJAGkegkgQ0MAGToCyNAQQAYnbsMCyDARQHhF+/btm7h58+bp3//+98d3dXXNj1Uz4uOwB5A4GCjW19eP27Jly4Kf/vSnJzz66KOTU3UsqTdLJe1E9tbV1XXNnDmzOHfu3KY5c+aMW7Bgwahjjz22cHAGZMyYOGg2AzJoAkj1EkCGhgAydKolgKTTv559dnO49dZVcTtpCGeddXaYOnVqdm3hHXfcHgf3TeHMM88KkydPDuvXr8uuMYz9Tjj77LPDpEmTX/K6wrwIIIMjgAwfAYTD8sgjj4xavHjx9Ph02NeddEFK3HnMvvPOOy/4xCc+8YYYkOaknUlNTc3ecePG7Z0yZcrW2Gk8M2HChD1LliypOf300ycvWrTo+OnTp8+vra0dG3/8uQtBSuWSADJIAkj1EkCGhgAydKopgNx77z3hqquuzMLGf//v/28MIWeFO++8I3z84x/P3vPhD384Cyaxrwmf/vT/iL9zR1i58sqwbNnp2ToxnASQwRFAho8AwlFt3bp1Y1evXv2Gr3/96795zz33zEzBY+LEiRvj4y/HjBmz5k1vetPWM844Y/+kSZPSuj4llgtieU0sx8fyXAgRQAZPAKleAsjQEECGTrUEkPQZbty4IVx//fXZ8xUrVoT58xdkt3e/8cYb4+/XHt70povDcccdl643jHU/Cvv37w9vfetbw9y5xwggRzkBZPgIIBz1Pvaxj6VgcWFvb+/EWbNmPfO6171ua5r9+MQnPvF0+n6T/ndltxmuf9e73rUsPr04ltfGckIsWQgRQAZPAKleAsjQEECGTrVdA/L8zzL2CdnjK9UlB+uHiwAyOPHzFECGiQDCq8KOHTtax48fPy52Bs/E8pL74EoIOT0+fXMsKYRkMyHlUC4KIIMjgFQvAWRoCCBDx0XoQ0MAGRwBZPgM79whDJGJEyfui4ODX75c+EguueSS7vvvv//u+PQHsdwSy6Ox7Ik7IV+OAACQAwGEEWfZsmU9//Iv/3JvDCs/ii9vjeXxWPamIyFpOQAAR44AwoiUZkLuu+++u+LTH8bys1geC6GwTwgBADiyBBBGrDQTcv/9999TKBRuKIfyXbGsL4TQEUOI02gBAI4QAYQRLYWQG264IYWQe8qF0jPlQuFArDYLAgBwhAggjHhNTU195UJ5Z7lc2FcI5Z6CG4kAABwxAgj0643hozeEl7+L1tEifbtvX1+f24QCAFVHAIFXod7e3tDZ0Vl5BQBQPQQQeBWqq6sLTc1NlVcAANVDAIFXoUKhkH1rc3oEAKgmAggAAJAbAQQAAMiNAAIAAORGAAEAAHIjgAAAALkRQAAAgNwIIAAAQG4EEAAAIDcCCAAAkBsBBAAAyI0AAgAA5EYAAQAAciOAAAAAuRFAAACA3AggAABAbgQQAAAgNwIIAACQGwEEAADIjQACDIlyudwbS9cRKN2xlCv/GwagVCr3xSbsiaWvUsUAxPYrVdoxrevWyQFKbRelNkxtWapUMwCp/SrtaJ3kqCKAQJR24vGhFPfeOsOBKIeu+O9dsTwTy1OxPDlE5elYni0UCvviZ2TwPACx3bpi+6XPZkssu+NrgW4A0voX2/FAfLo1lm3xebt2PHypzQqF0Bmf7Ygvt8R23BurevuXcjhiu/XE9tsTn6Zte2chhHTAxjrJUSGurzCypf6ws9x57OaubR8oh9LFcbOYH7eMhspiXkFsv75QKOwYX2x9dFzt2LWxKg12hyosNMT//vQDBzpOjhnxmPh8VOxw7bcOUfbZhLCjsbFhTUND/fauru4pnZ1dC2LdxFiK2vLQxHYsxaZqLxSK60aNanoqDvFqDxxoXxirZ8XFDdrx0MR2TIPj3thaW5qaGh+vra090N7eNbuvr3d+XNQam9FB0UPUv20X9sY2fKK5uWHTnt7CmPWd4bhSOUyNi2utk4emf9sOewrlcMf8UeGaL3/2b7592WWXdVQWcwTZ2Bnx4n66/P1/+f6GGD4eiy+fLhfKu+JeyRG5Q1QIhd5QDnv7CuXH48sbYvnWUJX42Vwb8+HP40f0y9hRtMU6M1SHKLZXNtiLn9Ce+GxNfH5PfFwdH3f313MYUnPGAFLaFB/vj2OW+2NdmpnrTMuyd3BIYpv1xIc0+/FIsVi8J7bpU7EJ98fXZjgPTxo4H4jtty61Y9wxPhTL9rhD7q4sh6omIUMUBxWFtV3rF8VEfnEcUK+INSfFwdr4+Lym8hZeWldsrydG1Yz+7uTa8d+OnWEKckPi5ptvrj333HOXd3R0vq9UKi+P/5+p8XPxmRyiONhLp8Y9UVNT8/WWlqYnOzq6zuzu7rkoDlwWxnW+sf9dHII0A7IttuhPW1oarymVCrM7OtrfEtvwzLhsbCz60kNWaCsUyg/V1zd+qbGxrj16XU9P6cK4Ts6M7VlXeROvIAW5uC/cWCwWvj16dMvPtneHkzd0hTfHNLwkRuKWytt4ZeW48e6J5c55o8K1V3/2b75jBiQfdppQkULIU90bTgzl0hvjDvw1cUc+N9Y2x47RdvJyyrEjDOWnRxWb/2VK3aQfxwCyqbJk0NJnEsui/fvb3lcul14bX06O1WZuD1m5O+7m1/X0dP5dU1PTfcVi7dt7erovjgOXBbG+vvImXlmaedsZ2/On7e0H/tekSZNOaGvreG8cBC6Lbdkal9lHHKIYPjpimz22bduuTyxYMGfvgQPt7ymV+i6MddPj0trK23hF5XQq27Nxn/jPe/bsvK5h2pwVm7vCO2O/dUJc2Nz/Hl5R7Lzi1rs/bsD3zmsu/PP/+uiVt1911VVmkXJgpwnPkwa8aSakNhQW14X6xXGAMTZuJLaTlxE7vL6+Ut/6nbt3/3Tp9JPSaVhD6tprr6258MI3La+pKZwVP4rx8f8ogByiuP729vX1rd+9e+fNxxxzzONbtmw5trl59BviwOXYuK4b7B26dJrV7lKp997bb7/95t7e3przzz8/tmNhadxlpMGefcQhim3WHdtxzfr163+8ZMmSjbt37z6tWKx7fayfYts+HIV096stcfe7qrW19a5/f/jpyZPmHPPG+mJYFNdG1zAehlI5HOjoKzy84Re3/PgdF1yQLuonB3aa8CJWrlxZfPe7331sTU3NmPjSdvIyYidYigOyTSeddFK6M1AaqA259Hm85z3vmR//+6PjS5/HIXqxz2bt2rWTYt2s+Npg79Cltjvw8MMPP3nJJZdk1ypcf/31DTHUHRefppkk6+QhKpVKfZs3b356xYoV+w6uk6tXr043mBgfn2rHQ5fabueiRYt+ebAdV61aNXrs2LHzYr/l4MKhS23XvW7durUXX3xxOmUVAAAAAAAAAAAAAAAAAAAAAAAAAAAAAAAAAAAAAAAAAAAAAAAAAAAAAAAAAAAAAAAAAAAAAAAAAAAAAAAAAAAAAAAAAAAAAAAAAAAAAAAAAAAAAAAAAAAAAAAAAAAAAAAAAAAAAAAAAAAAAAAAAAAAAAAAAAAAAAAAAAAAAAAAAAAAAAAAAAAAAAAAAAAAAAAAAAAAAAAAAAAAAAAAAAAAAAAAAAAAAAAAAAAAAAAAAAAAAAAAAAAAAAAAAAAAAAAAAAAAAAAAAAAAAAAAAAAAAAAAAAAAAAAAAAAAAAAAAAAAAAAAAKgCIfz/vNcPPi4K3joAAAAASUVORK5CYII=;" vertex="1" parent="1">
          <mxGeometry x="390" y="160" width="600" height="556.5" as="geometry" />
        </mxCell>
        <mxCell id="ev5S6L33R8Vy1crg-KvJ-5" value="&lt;b style=&quot;font-size: 19px;&quot;&gt;T&lt;sub&gt;1&lt;/sub&gt;&lt;/b&gt;" style="text;html=1;strokeColor=none;fillColor=none;align=center;verticalAlign=middle;whiteSpace=wrap;rounded=0;" vertex="1" parent="1">
          <mxGeometry x="614" y="291" width="60" height="30" as="geometry" />
        </mxCell>
        <mxCell id="ev5S6L33R8Vy1crg-KvJ-6" value="&lt;b style=&quot;font-size: 19px;&quot;&gt;T&lt;/b&gt;&lt;b style=&quot;font-size: 15.8333px;&quot;&gt;&lt;sub&gt;2&lt;/sub&gt;&lt;/b&gt;" style="text;html=1;strokeColor=none;fillColor=none;align=center;verticalAlign=middle;whiteSpace=wrap;rounded=0;" vertex="1" parent="1">
          <mxGeometry x="674" y="291" width="60" height="30" as="geometry" />
        </mxCell>
        <mxCell id="ev5S6L33R8Vy1crg-KvJ-7" value="&lt;b style=&quot;font-size: 19px;&quot;&gt;T&lt;/b&gt;&lt;b style=&quot;font-size: 15.8333px;&quot;&gt;&lt;sub&gt;N&lt;/sub&gt;&lt;/b&gt;" style="text;html=1;strokeColor=none;fillColor=none;align=center;verticalAlign=middle;whiteSpace=wrap;rounded=0;" vertex="1" parent="1">
          <mxGeometry x="860" y="291" width="60" height="30" as="geometry" />
        </mxCell>
        <mxCell id="ev5S6L33R8Vy1crg-KvJ-8" value="&lt;b style=&quot;font-size: 19px;&quot;&gt;T&lt;/b&gt;&lt;b style=&quot;font-size: 15.8333px;&quot;&gt;&lt;sub&gt;3&lt;/sub&gt;&lt;/b&gt;" style="text;html=1;strokeColor=none;fillColor=none;align=center;verticalAlign=middle;whiteSpace=wrap;rounded=0;" vertex="1" parent="1">
          <mxGeometry x="734" y="291" width="60" height="30" as="geometry" />
        </mxCell>
        <mxCell id="ev5S6L33R8Vy1crg-KvJ-9" value="&lt;b style=&quot;&quot;&gt;&lt;sub style=&quot;&quot;&gt;&lt;span style=&quot;font-size: 19px;&quot;&gt;K&lt;sub&gt;1&lt;/sub&gt;&lt;/span&gt;&lt;/sub&gt;&lt;/b&gt;" style="text;html=1;strokeColor=none;fillColor=none;align=center;verticalAlign=middle;whiteSpace=wrap;rounded=0;" vertex="1" parent="1">
          <mxGeometry x="150" y="530" width="60" height="30" as="geometry" />
        </mxCell>
        <mxCell id="ev5S6L33R8Vy1crg-KvJ-10" value="&lt;span style=&quot;font-size: 19px;&quot;&gt;&lt;b&gt;K&lt;sub&gt;2&lt;/sub&gt;&lt;/b&gt;&lt;/span&gt;" style="text;html=1;strokeColor=none;fillColor=none;align=center;verticalAlign=middle;whiteSpace=wrap;rounded=0;" vertex="1" parent="1">
          <mxGeometry x="180" y="580" width="60" height="30" as="geometry" />
        </mxCell>
        <mxCell id="ev5S6L33R8Vy1crg-KvJ-11" value="&lt;span style=&quot;font-size: 19px;&quot;&gt;&lt;b&gt;K&lt;sub&gt;N&lt;/sub&gt;&lt;/b&gt;&lt;/span&gt;" style="text;html=1;strokeColor=none;fillColor=none;align=center;verticalAlign=middle;whiteSpace=wrap;rounded=0;" vertex="1" parent="1">
          <mxGeometry x="230" y="520" width="60" height="30" as="geometry" />
        </mxCell>
        <mxCell id="ev5S6L33R8Vy1crg-KvJ-12" value="&lt;span style=&quot;font-size: 19px;&quot;&gt;&lt;b&gt;K&lt;sub&gt;3&lt;/sub&gt;&lt;/b&gt;&lt;/span&gt;" style="text;html=1;strokeColor=none;fillColor=none;align=center;verticalAlign=middle;whiteSpace=wrap;rounded=0;" vertex="1" parent="1">
          <mxGeometry x="180" y="650" width="60" height="30" as="geometry" />
        </mxCell>
      </root>
    </mxGraphModel>
  </diagram>
</mxfile>
